<?xml version="1.0" standalone="no"?><!DOCTYPE svg PUBLIC "-//W3C//DTD SVG 1.1//EN" "http://www.w3.org/Graphics/SVG/1.1/DTD/svg11.dtd"><svg t="1586745896405" class="icon" viewBox="0 0 1024 1024" version="1.1" xmlns="http://www.w3.org/2000/svg" p-id="12206" xmlns:xlink="http://www.w3.org/1999/xlink" width="200" height="200"><defs><style type="text/css"></style></defs><path d="M774.69033 0.57255h-136.456766a236.183919 236.183919 0 0 0-252.103875 251.876447v116.101965H248.990639A21.150799 21.150799 0 0 0 227.555556 389.417476V557.771011a21.150799 21.150799 0 0 0 21.435083 20.866514h137.13905v424.551112a21.150799 21.150799 0 0 0 21.435084 20.809657h178.872077a21.150799 21.150799 0 0 0 21.435084-20.866513v-424.551113h160.3367a21.150799 21.150799 0 0 0 21.435083-20.809657V389.417476a20.639086 20.639086 0 0 0-6.254268-14.782817 21.776226 21.776226 0 0 0-15.180815-6.140554H607.928791v-98.362585c0-47.305012 11.371397-71.355517 74.937507-71.355518h91.824032A21.150799 21.150799 0 0 0 796.125414 177.909489V21.666492A21.150799 21.150799 0 0 0 774.69033 0.57255z" p-id="12207" fill="#ffffff"></path></svg>