<?xml version="1.0" standalone="no"?><!DOCTYPE svg PUBLIC "-//W3C//DTD SVG 1.1//EN" "http://www.w3.org/Graphics/SVG/1.1/DTD/svg11.dtd"><svg t="1586718503206" class="icon" viewBox="0 0 1024 1024" version="1.1" xmlns="http://www.w3.org/2000/svg" p-id="2345" xmlns:xlink="http://www.w3.org/1999/xlink" width="200" height="200"><defs><style type="text/css"></style></defs><path d="M399.399385 641.378462c0 146.786462 139.933538 265.531077 312.280615 265.531077 47.458462 0 92.199385-8.861538 132.450462-24.891077l102.754462 56.635077-28.711385-97.910154C983.04 791.906462 1024 720.935385 1024 641.378462c0-146.471385-139.933538-265.216-312.359385-265.216C539.293538 376.162462 399.399385 494.907077 399.399385 641.378462zM779.264 537.284923c0-22.882462 18.786462-41.275077 41.984-41.275077 22.843077 0 41.629538 18.392615 41.629538 41.275077 0 22.528-18.786462 40.999385-41.629538 40.999385C798.050462 578.284308 779.264 559.812923 779.264 537.284923zM553.984 537.284923c0-22.882462 18.747077-41.275077 41.629538-41.275077 23.236923 0 41.984 18.392615 41.984 41.275077 0 22.528-18.786462 40.999385-41.984 40.999385C572.731077 578.284308 553.984 559.812923 553.984 537.284923zM0 397.981538c0 98.658462 53.917538 186.368 137.885538 243.712l-34.816 119.808 103.069538-56.635077 18.786462-18.786462c44.740923 16.029538 93.892923 24.891077 145.408 24.891077l12.996923 0c-6.498462-22.488615-9.964308-45.725538-9.964308-69.632 0-160.413538 151.591385-290.461538 338.274462-290.461538 8.231385 0 16.738462 0 24.969846 0.708923-26.663385-150.882462-180.578462-266.279385-366.276923-266.279385C165.888 85.346462 0 225.319385 0 397.981538zM463.556923 293.927385c0-24.576 20.48-44.386462 45.371077-44.386462 24.969846 0 45.095385 19.810462 45.095385 44.386462 0 24.221538-20.125538 44.347077-45.095385 44.347077C483.997538 338.274462 463.556923 318.148923 463.556923 293.927385zM180.184615 293.927385c0-24.576 20.204308-44.386462 45.095385-44.386462 24.930462 0 45.095385 19.810462 45.095385 44.386462 0 24.221538-20.164923 44.347077-45.095385 44.347077C200.388923 338.274462 180.184615 318.148923 180.184615 293.927385z" p-id="2346" fill="#ffffff"></path></svg>