<?xml version="1.0" standalone="no"?><!DOCTYPE svg PUBLIC "-//W3C//DTD SVG 1.1//EN" "http://www.w3.org/Graphics/SVG/1.1/DTD/svg11.dtd"><svg t="1586744061677" class="icon" viewBox="0 0 1024 1024" version="1.1" xmlns="http://www.w3.org/2000/svg" p-id="2547" xmlns:xlink="http://www.w3.org/1999/xlink" width="200" height="200"><defs><style type="text/css"></style></defs><path d="M681.856 962.048H340.992c-74.112 0-145.28-29.44-197.76-81.92S61.312 756.48 61.44 682.368V341.76c0-154.496 125.184-279.68 279.552-279.68h340.992c74.112 0 145.28 29.44 197.76 81.92s81.92 123.648 81.792 197.76v340.736c0 154.368-125.184 279.552-279.68 279.552zM511.488 280.576c-127.744 0-231.296 103.68-231.296 231.424-1.152 83.456 42.624 161.024 114.688 203.136 72.064 42.112 161.152 42.112 233.216 0 72.064-42.112 115.84-119.68 114.688-203.136 0-61.312-24.32-120.192-67.712-163.712-43.392-43.264-102.272-67.712-163.584-67.712z m232.704-76.032c-19.2-0.512-37.12 9.344-46.976 25.984-9.728 16.512-9.728 37.12 0 53.632s27.776 26.496 46.976 25.856c28.544-0.768 51.2-24.192 51.2-52.736 0-28.672-22.656-51.968-51.2-52.736zM511.488 659.072c-53.504 1.408-103.552-26.24-130.688-72.448-27.136-46.08-27.136-103.296 0.128-149.376 33.664-57.216 101.376-84.736 165.504-67.328 64 17.408 108.416 75.648 108.416 141.952-0.128 79.872-63.616 145.152-143.36 147.2z m0 0" p-id="2548" fill="#ffffff"></path></svg>